<svg width="22" height="24" viewBox="0 0 22 24" fill="none" xmlns="http://www.w3.org/2000/svg">
<path d="M10.5266 0C4.71347 0 0 5.15886 0 11.5213C0 17.8837 4.71347 23.0426 10.5266 23.0426C16.3397 23.0426 21.0532 17.8837 21.0532 11.5213C21.0532 5.15886 16.3397 0 10.5266 0ZM15.5855 8.68468C15.5925 8.80555 15.5925 8.93156 15.5925 9.055C15.5925 12.8303 12.9656 17.179 8.16515 17.179C6.68485 17.179 5.31263 16.7084 4.15659 15.8983C4.36806 15.9241 4.57014 15.9343 4.78631 15.9343C6.00814 15.9343 7.13129 15.4817 8.02652 14.7153C6.87987 14.6896 5.9165 13.8667 5.58755 12.7351C5.98934 12.7994 6.35119 12.7994 6.76474 12.6837C6.17432 12.5524 5.64365 12.2015 5.26286 11.6905C4.88207 11.1795 4.67466 10.5399 4.67587 9.88052V9.84452C5.02127 10.058 5.42777 10.1891 5.85306 10.2071C5.49554 9.94635 5.20234 9.59303 4.99945 9.17852C4.79656 8.76401 4.69026 8.30111 4.68997 7.83087C4.68997 7.29852 4.81685 6.81247 5.04477 6.39071C5.7001 7.27367 6.51786 7.99582 7.44489 8.51023C8.37192 9.02463 9.38747 9.31977 10.4255 9.37647C10.0566 7.43482 11.3819 5.86351 12.975 5.86351C13.7269 5.86351 14.4036 6.20812 14.8805 6.76361C15.4703 6.64274 16.0342 6.40099 16.5371 6.07696C16.342 6.73789 15.9332 7.29595 15.3904 7.64828C15.9168 7.58656 16.4243 7.42711 16.8942 7.20337C16.5394 7.77429 16.0953 8.28092 15.5855 8.68468Z" fill="white"/>
</svg>
